<svg width="33" height="29" viewBox="0 0 33 29" fill="none" xmlns="http://www.w3.org/2000/svg">
<path d="M12.75 28.675H0V20.675H0.667L2.054 20.688C3.06219 20.6753 4.05171 20.4142 4.935 19.928L5.589 19.595C7.48185 18.6075 9.57659 18.0689 11.711 18.021H18.011C18.5515 18.0236 19.0786 18.1891 19.5235 18.496C19.9684 18.8028 20.3105 19.2367 20.505 19.741L27.627 17.594C27.934 17.527 30.201 17.047 31.348 17.967C31.5609 18.138 31.7318 18.3556 31.8474 18.6029C31.9631 18.8503 32.0204 19.121 32.015 19.394C32.015 21.408 30.188 22.248 29.094 22.742L28.961 22.809C25.687 24.3203 22.4203 25.8453 19.161 27.384C17.1223 28.1967 14.9551 28.6393 12.761 28.691V28.678L12.75 28.675ZM1.35 27.341H12.75C14.7557 27.2877 16.7369 26.886 18.605 26.154C18.605 26.154 24.505 23.367 28.395 21.579L28.542 21.512C29.756 20.965 30.676 20.458 30.676 19.378C30.6835 19.3053 30.6728 19.2318 30.6449 19.1643C30.6169 19.0967 30.5727 19.0372 30.516 18.991C29.6989 18.6697 28.7985 18.6275 27.955 18.871L20.633 21.071C20.5343 21.7012 20.2142 22.2756 19.7302 22.6911C19.2462 23.1066 18.6299 23.3359 17.992 23.338H9.323V22.006H17.992C18.3393 21.9965 18.6693 21.8518 18.9116 21.6028C19.1539 21.3537 19.2895 21.02 19.2895 20.6725C19.2895 20.325 19.1539 19.9913 18.9116 19.7422C18.6693 19.4932 18.3393 19.3485 17.992 19.339H11.7C9.77867 19.3846 7.89378 19.873 6.192 20.766L5.538 21.099C3.764 22.019 3.657 22.046 2.017 22.019H1.32V27.354L1.347 27.341H1.35ZM23.353 16C25.4742 15.9983 27.5078 15.1542 29.0068 13.6534C30.5058 12.1526 31.3474 10.1179 31.3465 7.99675C31.3456 5.87558 30.5024 3.84159 29.0022 2.342C27.502 0.842409 25.4677 0 23.3465 0C21.2253 0 19.191 0.842409 17.6908 2.342C16.1906 3.84159 15.3474 5.87558 15.3465 7.99675C15.3456 10.1179 16.1872 12.1526 17.6862 13.6534C19.1852 15.1542 21.2188 15.9983 23.34 16H23.353ZM23.353 1.329C22.0341 1.329 20.7448 1.72008 19.6481 2.45279C18.5514 3.1855 17.6967 4.22694 17.1918 5.44542C16.687 6.6639 16.5548 8.00471 16.812 9.29832C17.0692 10.5919 17.7041 11.7802 18.6366 12.713C19.5691 13.6457 20.7572 14.2811 22.0507 14.5386C23.3442 14.7962 24.6851 14.6644 25.9037 14.1599C27.1224 13.6555 28.1641 12.801 28.8971 11.7045C29.6301 10.6081 30.0216 9.31892 30.022 8C30.0212 6.23179 29.3182 4.53627 28.0676 3.28624C26.817 2.03621 25.1212 1.334 23.353 1.334V1.329Z" fill="black"/>
</svg>
