<svg width="42" height="31" viewBox="0 0 42 31" fill="none" xmlns="http://www.w3.org/2000/svg">
<path d="M2.83 1.887C2.5799 1.887 2.34005 1.98635 2.1632 2.1632C1.98635 2.34005 1.887 2.5799 1.887 2.83V9.43H39.622V2.83C39.622 2.5799 39.5227 2.34005 39.3458 2.1632C39.169 1.98635 38.9291 1.887 38.679 1.887H2.83ZM39.622 11.321H1.887V27.358C1.8858 27.4822 1.90937 27.6053 1.95634 27.7203C2.0033 27.8352 2.07272 27.9397 2.16052 28.0275C2.24833 28.1153 2.35276 28.1847 2.46771 28.2317C2.58267 28.2786 2.70583 28.3022 2.83 28.301H38.679C38.9291 28.301 39.169 28.2017 39.3458 28.0248C39.5227 27.848 39.622 27.6081 39.622 27.358V11.321ZM2.83513e-06 2.83C-0.000523779 2.45821 0.0723169 2.08998 0.214351 1.74639C0.356385 1.4028 0.564822 1.09061 0.827716 0.827716C1.09061 0.564822 1.4028 0.356385 1.74639 0.214351C2.08998 0.0723169 2.45821 -0.000523779 2.83 2.83513e-06H38.679C39.0508 -0.000523779 39.419 0.0723169 39.7626 0.214351C40.1062 0.356385 40.4184 0.564822 40.6813 0.827716C40.9442 1.09061 41.1526 1.4028 41.2947 1.74639C41.4367 2.08998 41.5095 2.45821 41.509 2.83V27.358C41.5095 27.7298 41.4367 28.098 41.2947 28.4416C41.1526 28.7852 40.9442 29.0974 40.6813 29.3603C40.4184 29.6232 40.1062 29.8316 39.7626 29.9737C39.419 30.1157 39.0508 30.1885 38.679 30.188H2.83C2.07944 30.188 1.35962 29.8898 0.828891 29.3591C0.298163 28.8284 2.83513e-06 28.1086 2.83513e-06 27.358V2.83ZM20.755 22.641H35.849V24.528H20.755V22.641Z" fill="black"/>
</svg>
