<svg width="130" height="83" viewBox="0 0 130 83" fill="none" xmlns="http://www.w3.org/2000/svg">
<mask id="mask0_1_80" style="mask-type:luminance" maskUnits="userSpaceOnUse" x="0" y="0" width="130" height="83">
<path d="M130 0H0V83H130V0Z" fill="white"/>
</mask>
<g mask="url(#mask0_1_80)">
<path d="M27.455 83C27.3625 82.9314 27.2617 82.8746 27.155 82.831C26.0578 82.62 25.0683 82.0334 24.3565 81.1721C23.6448 80.3107 23.2553 79.2283 23.255 78.111C23.155 76.477 23.167 74.835 23.163 73.196C23.152 68.71 23.163 64.225 23.163 59.739C23.163 59.37 23.163 59 23.163 58.557H26.911V59.551C26.911 65.3357 26.9133 71.1203 26.918 76.905C26.9169 77.3664 26.9723 77.8261 27.083 78.274C27.1724 78.6675 27.4082 79.0122 27.7425 79.2382C28.0768 79.4642 28.4845 79.5546 28.883 79.491C29.2683 79.5372 29.657 79.4377 29.9726 79.2119C30.2883 78.9862 30.5082 78.6506 30.589 78.271C30.702 77.7923 30.758 77.3019 30.756 76.81C30.7673 71.0873 30.7697 65.3643 30.763 59.641V58.555H34.213C34.228 58.831 34.258 59.127 34.258 59.423C34.258 65.2077 34.2553 70.9923 34.25 76.777C34.2591 77.5492 34.186 78.3202 34.032 79.077C33.877 79.9767 33.4598 80.8107 32.8327 81.4743C32.2056 82.1378 31.3966 82.6015 30.507 82.807C30.3425 82.8632 30.1819 82.93 30.026 83.007L27.455 83Z" fill="white"/>
<path d="M130 58.665C129.145 61.485 128.291 64.3053 127.437 67.126C127.214 67.863 127.037 68.617 126.78 69.338C125.495 72.7504 124.964 76.4009 125.226 80.038C125.291 80.861 125.236 81.693 125.236 82.57H121.487C121.487 82.047 121.452 81.533 121.493 81.025C121.773 76.7079 121.149 72.38 119.66 68.318C118.62 65.296 117.842 62.182 116.949 59.108C116.899 58.936 116.865 58.759 116.798 58.481C118.009 58.481 119.159 58.448 120.304 58.512C120.504 58.523 120.768 58.923 120.839 59.188C121.725 62.488 122.58 65.793 123.605 69.129L126.395 58.475H129.995L130 58.665Z" fill="white"/>
<path d="M35.68 24.613C35.362 24.64 35.18 24.668 35.006 24.668C31.9853 24.668 28.965 24.668 25.945 24.668C25.494 24.668 25.114 24.685 25.082 24.032C24.846 19.268 25.25 14.56 27.419 10.284C28.5012 8.13334 30.0191 6.23141 31.8762 4.69919C33.7333 3.16696 35.8889 2.03797 38.206 1.384C40.8637 0.535054 43.6656 0.231561 46.4435 0.49172C49.2213 0.751878 51.9181 1.57033 54.372 2.898C59.85 5.773 62.734 10.652 63.695 16.67C64.0291 19.4 64.1711 22.1501 64.12 24.9C64.202 29.665 64.192 34.432 64.22 39.2C64.22 39.469 64.183 39.739 64.161 40.045C63.861 40.07 63.623 40.106 63.386 40.107C60.335 40.107 57.286 40.094 54.233 40.122C53.58 40.128 53.326 39.984 53.333 39.251C53.433 33.217 53.533 27.182 53.533 21.151C53.5336 18.5333 52.6921 15.9848 51.133 13.882C47.633 9.047 38.868 10.274 36.633 16.23C35.7862 18.5595 35.435 21.04 35.602 23.513C35.62 23.848 35.649 24.182 35.68 24.613Z" fill="white"/>
<path d="M96.516 15.955C96.831 15.93 97.069 15.896 97.307 15.895C100.235 15.895 103.164 15.907 106.092 15.881C106.724 15.875 107.024 16.017 107.058 16.734C107.408 21.1008 106.714 25.4881 105.034 29.534C104.032 31.7907 102.556 33.8051 100.706 35.4403C98.8561 37.0754 96.6756 38.2929 94.313 39.01C91.4452 40.0114 88.3905 40.3626 85.3703 40.0382C82.35 39.7137 79.4397 38.7217 76.85 37.134C71.775 34.134 69.072 29.343 68.368 23.605C67.9989 19.2627 67.8513 14.9043 67.926 10.547C67.865 7.485 67.913 4.42 67.87 1.358C67.86 0.658 68.076 0.458 68.755 0.458C71.805 0.489333 74.8553 0.489333 77.906 0.458C78.606 0.451 78.773 0.691 78.763 1.371C78.674 7.249 78.623 13.128 78.552 19.006C78.5325 21.0854 79.009 23.1395 79.942 24.998C80.5739 26.4769 81.6568 27.7184 83.0362 28.5454C84.4155 29.3723 86.0208 29.7425 87.623 29.603C91.849 29.308 94.575 27.368 95.708 23.553C96.1148 21.8782 96.3801 20.1722 96.501 18.453C96.5538 17.6206 96.5592 16.786 96.517 15.953" fill="white"/>
<path d="M62.196 82.601H58.432L53.932 65.923L53.781 65.93V82.563H50.428V58.546H55.086L58.805 72.321L58.956 72.306V58.528H62.201L62.196 82.601Z" fill="white"/>
<path d="M36.96 58.388C39.528 58.488 42.09 58.457 44.617 58.744C45.4754 58.8315 46.2754 59.2191 46.8761 59.8385C47.4768 60.4579 47.8398 61.2693 47.901 62.13C48.077 63.7863 48.1135 65.4546 48.01 67.117C48.0022 67.8787 47.7878 68.624 47.3896 69.2733C46.9914 69.9227 46.4243 70.4517 45.749 70.804C47.764 71.91 48.113 73.765 48.149 75.773C48.184 78.021 48.224 80.273 48.263 82.573H44.716C44.606 82.1602 44.5298 81.7391 44.488 81.314C44.434 79.427 44.457 77.537 44.379 75.652C44.279 73.327 43.639 72.757 41.31 72.783C41.13 72.783 40.95 72.783 40.669 72.783V82.575H36.969L36.96 58.388ZM40.669 69.288C41.347 69.288 41.953 69.331 42.551 69.279C42.7834 69.281 43.0139 69.236 43.2285 69.1467C43.4431 69.0573 43.6374 68.9255 43.7998 68.7591C43.9621 68.5928 44.0892 68.3953 44.1732 68.1786C44.2573 67.9618 44.2967 67.7303 44.289 67.498C44.35 66.204 44.345 64.898 44.289 63.607C44.3193 63.2319 44.206 62.8594 43.9721 62.5646C43.7382 62.2698 43.4011 62.0748 43.029 62.019C42.2444 61.9653 41.4574 61.9586 40.672 61.999L40.669 69.288Z" fill="white"/>
<path d="M20.859 70.616C20.859 72.716 20.884 74.823 20.852 76.926C20.82 79.029 20.309 80.979 18.329 82.038C17.3394 82.5973 16.2201 82.8864 15.0834 82.8764C13.9467 82.8664 12.8326 82.5576 11.853 81.981C11.1319 81.5784 10.5343 80.9868 10.1245 80.2698C9.71462 79.5528 9.50805 78.7376 9.527 77.912C9.444 73.182 9.398 68.449 9.486 63.72C9.565 59.466 12.642 57.93 16.118 58.365C19.146 58.743 20.792 60.708 20.849 63.844C20.89 66.101 20.857 68.36 20.857 70.618L20.859 70.616ZM13.169 70.502C13.169 72.634 13.161 74.765 13.176 76.902C13.1743 77.3014 13.2275 77.6991 13.334 78.084C13.619 79.056 14.234 79.411 15.384 79.33C15.8037 79.3364 16.2093 79.1791 16.5149 78.8914C16.8205 78.6037 17.0021 78.2083 17.021 77.789C17.0838 77.2989 17.1128 76.8051 17.108 76.311C17.1147 72.7584 17.1147 69.2057 17.108 65.653C17.108 64.943 17.108 64.23 17.04 63.525C17.0508 63.2774 17.0071 63.0305 16.9119 62.8017C16.8168 62.5729 16.6725 62.3678 16.4894 62.2009C16.3062 62.0339 16.0887 61.9093 15.852 61.8357C15.6154 61.7621 15.3655 61.7414 15.12 61.775C13.862 61.781 13.193 62.488 13.177 63.927C13.152 66.12 13.17 68.314 13.168 70.507" fill="white"/>
<path d="M104.684 70.462C104.684 68.204 104.619 65.945 104.698 63.69C104.847 59.443 107.898 57.918 111.365 58.37C114.365 58.761 116.023 60.69 116.065 63.78C116.119 68.2953 116.119 72.811 116.065 77.327C116.11 77.9989 116.022 78.6731 115.806 79.311C115.59 79.9488 115.25 80.5376 114.806 81.0436C114.361 81.5497 113.821 81.9629 113.217 82.2597C112.612 82.5565 111.955 82.7309 111.283 82.773C108.298 83.195 105.812 81.873 105.043 79.32C104.789 78.3675 104.661 77.3858 104.661 76.4C104.605 74.422 104.644 72.441 104.644 70.462H104.688M108.395 70.531C108.395 72.755 108.375 74.98 108.402 77.204C108.418 78.604 109.067 79.304 110.271 79.335C111.506 79.368 112.21 78.829 112.256 77.57C112.342 75.195 112.33 72.815 112.331 70.437C112.331 68.152 112.347 65.865 112.262 63.582C112.213 62.268 111.507 61.724 110.225 61.776C109.039 61.824 108.414 62.537 108.4 63.951C108.378 66.144 108.394 68.338 108.4 70.531" fill="white"/>
<path d="M73.918 68.651V72.12H68.901V79.137H75.21V82.577H65.168V58.544H75.226V61.885H68.901V68.651H73.918Z" fill="white"/>
<path d="M84.767 82.582H81.019C81.019 81.682 80.947 80.822 81.031 79.975C81.431 75.939 80.392 72.156 79.197 68.375C78.178 65.151 77.283 61.886 76.289 58.487C77.548 58.487 78.717 58.46 79.882 58.516C80.057 58.524 80.299 58.9 80.365 59.146C81.177 62.18 81.965 65.222 82.755 68.261C82.831 68.553 82.92 68.843 83.076 69.386L85.915 58.518H89.482C88.74 61.074 88.018 63.584 87.282 66.091C86.52 68.691 85.734 71.283 84.982 73.891C84.8435 74.3944 84.7729 74.914 84.772 75.436C84.75 77.785 84.762 80.136 84.762 82.584" fill="white"/>
<path d="M107.092 5.946C107.058 7.0846 106.687 8.1876 106.027 9.11612C105.367 10.0447 104.448 10.7572 103.384 11.1641C102.32 11.571 101.159 11.654 100.048 11.4027C98.937 11.1514 97.9252 10.577 97.1398 9.75188C96.3545 8.92673 95.8308 7.8877 95.6348 6.76558C95.4387 5.64346 95.579 4.48841 96.038 3.44585C96.497 2.40329 97.2541 1.51981 98.2141 0.906643C99.1741 0.293475 100.294 -0.0219773 101.433 -8.95932e-07C102.97 0.0434766 104.427 0.692846 105.487 1.80651C106.548 2.92017 107.124 4.4088 107.092 5.946Z" fill="white"/>
<path d="M36.133 34.564C36.1415 35.3245 35.9998 36.0793 35.7163 36.785C35.4327 37.4908 35.0127 38.1337 34.4804 38.677C33.9481 39.2202 33.3139 39.6532 32.6141 39.9511C31.9143 40.249 31.1626 40.4059 30.402 40.413C28.8686 40.3971 27.4032 39.7778 26.3231 38.6892C25.2431 37.6006 24.6353 36.1303 24.6315 34.5968C24.6277 33.0633 25.2281 31.5901 26.3027 30.4961C27.3774 29.4021 28.8397 28.7755 30.373 28.752C31.1337 28.7525 31.8867 28.9036 32.5887 29.1965C33.2907 29.4894 33.9278 29.9183 34.4632 30.4586C34.9987 30.9989 35.4219 31.6398 35.7085 32.3444C35.9951 33.049 36.1393 33.8034 36.133 34.564Z" fill="white"/>
<path d="M0 82.625V79.108C0.521 79.108 1.027 79.126 1.531 79.108C1.75454 79.1208 1.97838 79.0886 2.18927 79.0134C2.40016 78.9381 2.5938 78.8213 2.75875 78.6699C2.92369 78.5185 3.05658 78.3355 3.14955 78.1318C3.24252 77.9281 3.29368 77.7078 3.3 77.484C3.35441 77.0237 3.3798 76.5605 3.376 76.097C3.38067 70.6237 3.38067 65.1503 3.376 59.677V58.535H7.126V59.519C7.126 65.147 7.126 70.775 7.126 76.403C7.14042 76.8666 7.12305 77.3307 7.074 77.792C6.599 81.205 4.974 82.622 1.548 82.626H0" fill="white"/>
<path d="M95.225 82.625V79.111C95.71 79.111 96.185 79.123 96.658 79.111C96.8962 79.1346 97.1368 79.1078 97.364 79.0323C97.5912 78.9568 97.7999 78.8343 97.9767 78.6728C98.1535 78.5114 98.2942 78.3145 98.3899 78.095C98.4856 77.8755 98.534 77.6384 98.532 77.399C98.5799 76.9379 98.6016 76.4745 98.597 76.011C98.601 70.5683 98.601 65.126 98.597 59.684V58.539H102.303C102.317 58.831 102.343 59.128 102.343 59.424C102.343 65.176 102.343 70.9277 102.343 76.679C102.352 77.0497 102.336 77.4206 102.294 77.789C101.817 81.202 100.189 82.624 96.77 82.627H95.225" fill="white"/>
</g>
</svg>
