<svg width="21" height="22" viewBox="0 0 21 22" fill="none" xmlns="http://www.w3.org/2000/svg">
<path d="M7.02 1.825C5.4234 1.825 3.89219 2.45924 2.76322 3.58821C1.63425 4.71718 1 6.24839 1 7.845C1 9.4416 1.63425 10.9728 2.76322 12.1018C3.89219 13.2307 5.4234 13.865 7.02 13.865C7.81793 13.8923 8.61296 13.7553 9.35571 13.4625C10.0985 13.1696 10.7731 12.7272 11.3376 12.1626C11.9022 11.598 12.3446 10.9234 12.6375 10.1807C12.9303 9.43796 13.0673 8.64293 13.04 7.845C13.0384 6.24888 12.4037 4.71859 11.275 3.58997C10.1464 2.46134 8.61612 1.82659 7.02 1.825ZM0 7.845C2.77433e-08 5.98318 0.739605 4.19761 2.05611 2.88111C3.37262 1.5646 5.15818 0.824997 7.02 0.824997C8.88182 0.824997 10.6674 1.5646 11.9839 2.88111C13.3004 4.19761 14.04 5.98318 14.04 7.845C14.0751 9.54731 13.4884 11.204 12.39 12.505L20.35 20.475L19.65 21.175L11.68 13.205C10.3737 14.2952 8.72137 14.8838 7.02 14.865C5.15818 14.865 3.37262 14.1254 2.05611 12.8089C0.739605 11.4924 0 9.70682 0 7.845Z" fill="black"/>
</svg>
