<svg width="32" height="39" viewBox="0 0 32 39" fill="none" xmlns="http://www.w3.org/2000/svg">
<path d="M12.4776 31.908V29.498C10.8246 29.4919 9.18154 29.2419 7.60156 28.756V27.181C9.25385 27.6208 10.9539 27.8559 12.6636 27.881C15.5926 27.881 17.3546 27.028 17.3546 25.86C17.3546 24.636 16.1496 24.024 13.3126 23.338C9.27056 22.338 7.78756 21.317 7.78756 19.185C7.78756 17.405 9.28756 16.033 12.4786 15.718V13.349H14.1286V15.63C15.6626 15.6052 17.1885 15.8565 18.6336 16.372V17.985C17.1295 17.4731 15.5504 17.2163 13.9616 17.225C11.2736 17.225 9.86156 18.025 9.86156 19.172C9.86156 20.377 11.0116 20.989 13.9036 21.694C17.7416 22.621 19.4286 23.715 19.4286 25.847C19.4286 27.647 17.5006 29.129 14.1286 29.447V31.913H12.4596L12.4776 31.908Z" fill="black"/>
<path d="M0 0H22.62L31.52 8.9V38.936H0V0ZM1.854 1.854V37.082H29.665V11.125H20.395V1.854H1.854ZM22.249 2.225V9.27H29.295L22.249 2.225Z" fill="black"/>
</svg>
